<?xml version="1.0" standalone="no"?>
<!DOCTYPE svg PUBLIC "-//W3C//DTD SVG 20010904//EN"
 "http://www.w3.org/TR/2001/REC-SVG-20010904/DTD/svg10.dtd">
<svg version="1.0" xmlns="http://www.w3.org/2000/svg"
 width="1024.000000pt" height="1024.000000pt" viewBox="0 0 1024.000000 1024.000000"
 preserveAspectRatio="xMidYMid meet">
<metadata>
Created by potrace 1.11, written by Peter Selinger 2001-2013
</metadata>
<g transform="translate(0.000000,1024.000000) scale(0.100000,-0.100000)"
fill="#000000" stroke="none">
<path d="M8 5263 c-2 -2738 -2 -5042 0 -5120 l3 -143 5115 0 5114 0 0 5120 0
5120 -5115 0 -5115 0 -2 -4977z m2562 4317 l0 -210 223 2 222 3 3 208 2 207
2195 0 2195 0 0 -200 0 -200 225 0 225 0 0 200 0 200 970 0 970 0 0 -970 0
-970 -222 -2 -223 -3 -3 -222 -2 -223 225 0 225 0 0 -2180 0 -2180 -225 0
-225 0 2 -223 3 -222 223 -3 222 -2 0 -1080 0 -1080 -39 0 c-77 0 -335 107
-499 206 -671 407 -1203 1352 -1787 3170 -147 459 -295 959 -610 2064 -167
586 -347 1209 -400 1385 -481 1596 -825 2286 -1207 2429 -131 49 -242 42 -373
-23 -313 -156 -593 -670 -951 -1746 -161 -486 -289 -916 -633 -2130 -323
-1140 -473 -1641 -666 -2220 -545 -1636 -1039 -2498 -1661 -2901 -137 -88
-377 -199 -496 -229 l-28 -7 0 1081 0 1081 243 2 242 3 3 223 2 222 -245 0
-245 0 0 2180 0 2180 245 0 245 0 -2 223 -3 222 -242 3 -243 2 0 970 0 970
1060 0 1060 0 0 -210z m2616 -190 c211 -120 467 -619 754 -1465 163 -483 302
-947 639 -2135 340 -1202 505 -1754 691 -2310 417 -1252 785 -2018 1225 -2555
107 -130 315 -332 433 -419 50 -38 92 -71 92 -73 0 -1 -261 -3 -580 -3 l-580
0 0 230 0 230 -225 0 -225 0 0 -230 0 -230 -2195 0 -2195 0 0 230 0 230 -225
0 -225 0 0 -225 c0 -171 -3 -227 -12 -230 -7 -3 -323 -4 -702 -3 l-690 3 85
61 c489 357 922 1022 1328 2042 296 741 535 1492 1016 3192 337 1193 466 1625
629 2115 262 785 490 1271 689 1470 110 110 180 129 273 75z"/>
</g>
</svg>
